<svg xmlns="http://www.w3.org/2000/svg" viewBox="0 0 512 512">
  <defs>
    <linearGradient id="g" x1="0" y1="0" x2="1" y2="1">
      <stop offset="0" stop-color="#3B82F6"/>
      <stop offset="1" stop-color="#10B981"/>
    </linearGradient>
  </defs>
  <rect width="512" height="512" rx="96" fill="#0B0F14"/>
  <rect x="24" y="24" width="464" height="464" rx="80" fill="url(#g)" opacity="0.12"/>
  <path d="M256 104c-83.9 0-152 68.1-152 152s68.1 152 152 152 152-68.1 152-152S339.9 104 256 104zm0 260c-59.6 0-108-48.4-108-108s48.4-108 108-108 108 48.4 108 108-48.4 108-108 108z" fill="url(#g)"/>
  <path d="M276 200h-40c-20 0-36 16-36 36s16 36 36 36h40c6.6 0 12 5.4 12 12s-5.4 12-12 12h-60v24h40v16h24v-16h4c20 0 36-16 36-36s-16-36-36-36h-40c-6.6 0-12-5.4-12-12s5.4-12 12-12h60v-24h-40v-16h-24v16z" fill="#FACC15"/>
</svg>
